<?xml version="1.0" standalone="no"?>
<!DOCTYPE svg PUBLIC "-//W3C//DTD SVG 20010904//EN"
 "http://www.w3.org/TR/2001/REC-SVG-20010904/DTD/svg10.dtd">
<svg version="1.0" xmlns="http://www.w3.org/2000/svg"
 width="512.000000pt" height="512.000000pt" viewBox="0 0 512.000000 512.000000"
 preserveAspectRatio="xMidYMid meet">
<metadata>
Created by potrace 1.11, written by Peter Selinger 2001-2013
</metadata>
<g transform="translate(0.000000,512.000000) scale(0.100000,-0.100000)"
fill="#000000" stroke="none">
<path d="M1791 5050 c-119 -25 -251 -116 -313 -216 -117 -185 -92 -436 57
-589 137 -141 324 -188 504 -125 76 26 162 81 201 127 45 54 70 95 96 158 23
59 28 85 28 165 1 214 -117 385 -318 459 -67 25 -189 35 -255 21z"/>
<path d="M1560 3810 c-5 -3 -8 -816 -8 -1808 l0 -1802 336 2 337 3 -1 835 c-1
459 -2 898 -3 975 -2 77 0 512 3 968 2 455 2 828 -2 828 -24 4 -655 3 -662 -1z"/>
<path d="M2481 3810 c-6 -3 -9 -15 -6 -25 10 -50 144 -477 151 -484 3 -3 33
-6 67 -8 266 -9 438 -66 552 -181 127 -128 175 -340 125 -551 -27 -113 -71
-193 -150 -271 -60 -60 -118 -96 -245 -151 -16 -7 -98 -28 -175 -44 -101 -21
-251 -58 -272 -66 -34 -14 -41 3 122 -262 66 -108 120 -201 120 -207 0 -5 4
-10 9 -10 5 0 12 -8 15 -17 3 -10 12 -27 19 -38 7 -11 33 -52 57 -91 25 -38
50 -79 57 -90 6 -10 81 -131 165 -267 84 -136 158 -256 163 -265 6 -9 41 -67
78 -127 37 -61 73 -119 80 -129 7 -11 27 -44 45 -74 18 -29 35 -62 37 -73 9
-46 73 -117 138 -152 41 -21 52 -22 390 -25 191 -2 347 0 347 4 0 4 -11 21
-23 38 -13 17 -85 121 -159 231 -304 449 -434 641 -584 863 -154 228 -245 339
-311 377 -18 11 -33 22 -33 25 0 3 17 12 38 19 413 144 684 460 739 861 9 67
9 245 0 321 -17 139 -84 313 -163 420 -189 256 -511 403 -979 445 -90 9 -403
12 -414 4z"/>
</g>
</svg>
